<svg version="1.1" xmlns="http://www.w3.org/2000/svg" xmlns:xlink="http://www.w3.org/1999/xlink" x="0px" y="0px"
	 viewBox="0 0 252.483 60.918" style="enable-background:new 0 0 268.4828491 63.9181824;">
<style type="text/css">
	.st0{fill-rule:evenodd;clip-rule:evenodd;fill:#FCAF17;}
	.st1{fill-rule:evenodd;clip-rule:evenodd;fill:#00B8EC;}
	.st2{fill-rule:evenodd;clip-rule:evenodd;fill:#F68B1F;}
	.st3{fill-rule:evenodd;clip-rule:evenodd;fill:#0095DA;}
	.st4{fill-rule:evenodd;clip-rule:evenodd;fill:#F15A22;}
	.st5{fill-rule:evenodd;clip-rule:evenodd;fill:#005BAA;}
	.st6{fill-rule:evenodd;clip-rule:evenodd;fill:#ED1C24;}
	.st7{fill-rule:evenodd;clip-rule:evenodd;}
</style>
<g>
	<path d="M234.5694122,37.4917908h2.3970032l0.5610046-7.675415c0.0509949-0.764801-0.0255127-2.2183838-0.0255127-2.2183838
		h0.0510254c0,0,0.4078979,0.9691772,0.8157959,1.9125977l3.0599976,6.4257813h2.1163025l3.0599976-6.4512939
		c0.4844971-0.9943848,0.8158875-1.887085,0.8158875-1.887085h0.0509949c0,0-0.0509949,1.4535828-0.0254822,2.2183838
		l0.5608826,7.675415h2.3970032l-1.1218872-12.9024963h-2.7029114l-3.3657837,7.2926941
		c-0.3316956,0.7902832-0.7141113,1.7340088-0.7141113,1.7340088h-0.0509949c0,0-0.3569031-0.9692078-0.7139893-1.7340088
		l-3.2893982-7.2926941h-2.7538147L234.5694122,37.4917908z M220.3038177,31.0151672
		c0-2.6775818,1.9888-4.5900879,4.4367981-4.5900879c2.4225159,0,4.4370117,1.9125061,4.4370117,4.5900879
		c0,2.7025146-2.0144958,4.640625-4.4370117,4.640625C222.2926178,35.6557922,220.3038177,33.7176819,220.3038177,31.0151672z
		 M217.7795258,31.0151672c0,3.9265137,3.1108093,6.7824097,6.9610901,6.7824097c3.8247986,0,6.935791-2.855896,6.935791-6.7824097
		c0-3.9015808-3.1109924-6.7319946-6.9612732-6.7319946C220.8903351,24.2831726,217.7795258,27.1135864,217.7795258,31.0151672z
		 M205.4009247,37.4917908h2.4732971v-5.5843201h1.8615112l3.8502808,5.5843201h2.9324036l-4.8194885-6.7062073v-0.0509949
		l4.3096008-6.1452942h-2.8049011l-3.5190125,5.2018738h-1.8103943v-5.2018738h-2.4732971V37.4917908z M192.5631256,29.5870972
		c0.3569031-2.1421204,1.8614807-3.3914185,3.7738037-3.3914185c1.6828918,0,3.0599976,1.1730042,3.1362,3.3914185H192.5631256z
		 M189.9113312,31.0403748c0,3.8251038,2.8049011,6.7572021,6.8592834,6.7572021
		c1.7846985,0,3.7481995-0.6882019,4.9977112-1.8359985l-1.0457153-1.8102112
		c-1.0198975,0.9179077-2.4221802,1.504425-3.7992859,1.504425c-2.3204041,0-4.3092041-1.504425-4.4367065-4.2837219h9.3835144
		c0.0509949-0.3569031,0.1019897-0.7140808,0.1019897-1.0453796c0-3.3149109-1.9377136-6.0435181-5.584198-6.0435181
		C192.7162323,24.2831726,189.9113312,26.9349976,189.9113312,31.0403748z M174.9316254,37.6192932
		c3.7995911-0.20401,5.2783813-3.2130127,5.2783813-9.052124v-1.9380798h3.7993164v10.8627014h2.4735107V24.5892944h-8.6443176
		v3.9778748c0,4.6661072-1.0198975,6.5531006-2.9068909,6.8338013V37.6192932z M163.4964142,29.5870972
		c0.3568115-2.1421204,1.8615112-3.3914185,3.7740173-3.3914185c1.6825867,0,3.0596924,1.1730042,3.1362915,3.3914185H163.4964142z
		 M160.8445282,31.0403748c0,3.8251038,2.8049011,6.7572021,6.8592834,6.7572021
		c1.7846985,0,3.7483215-0.6882019,4.9978027-1.8359985l-1.0453796-1.8102112
		c-1.019928,0.9179077-2.4225159,1.504425-3.7996216,1.504425c-2.3200989,0-4.3092041-1.504425-4.4367981-4.2837219h9.3835144
		c0.0513916-0.3569031,0.1023865-0.7140808,0.1023865-1.0453796c0-3.3149109-1.9380798-6.0435181-5.5845947-6.0435181
		C163.6494293,24.2831726,160.8445282,26.9349976,160.8445282,31.0403748z M152.673111,37.4917908h2.4990234V23.0894775h6.1962891
		v-2.1925964h-14.89151v2.1925964h6.1961975V37.4917908z"/>
	<path d="M105.0791168,37.4954834c0.4393921-5.5329895,0.8815918-11.0664978,1.3280945-16.5986023h1.293396l4.903717,10.576416
		c0.2414856,0.5138855,0.5019836,1.1320801,0.6612854,1.5175781c0.1589966-0.3858032,0.4195251-1.0036926,0.6613159-1.5175781
		l4.9036865-10.576416h1.2931213l1.3280945,16.5986023h-1.4015198l-1.0019836-12.4450073
		c-0.0332031-0.3746948-0.0511169-0.8735962-0.0606995-1.3041992c-0.1650085,0.4456177-0.3719177,0.9760132-0.5563965,1.3685913
		l-4.5230103,9.5995178h-1.2851868c-0.9407959-2.0064087-3.4977112-8.1978149-4.5009155-9.602417
		c-0.1802979-0.3967896-0.4013977-0.9636841-0.5776978-1.4322815c-0.0093079,0.4517822-0.0274963,0.9830933-0.0614929,1.3707886
		l-1.0020142,12.4450073H105.0791168z M128.7116241,37.4954834h-1.211792V20.8968811h1.4006042v6.991394h2.8005981
		l4.481781-6.991394h1.6827087l-4.9733887,7.6333923l5.5785828,8.96521h-1.6817932l-5.0905151-8.2780151h-2.7979736v8.2780151
		H128.7116241z M93.5634308,37.4954834V20.8968811h8.7745972v1.3288879h-7.3742981v15.2697144H93.5634308z M79.080307,37.4942932
		c-0.4350891-0.1805115-0.8454895-0.4257202-1.2128906-0.6828003l-0.1520081-0.1065979l0.7566223-1.1188049l0.2006836,0.1383057
		c0.376709,0.2593994,1.0794067,0.7440796,1.8000183,0.7440796c0.5391846,0,0.9152832-0.2284851,1.2236938-0.6349792
		c0.3194885-0.4223022,0.4873047-0.8300171,0.767395-1.5760193l-6.6565857-13.3605957h1.5635986l4.9911804,10.0300903
		c0.3067017,0.6148987,0.6119995,1.3224182,0.7928162,1.7546997c0.1488953-0.4294739,0.3934937-1.1261902,0.6221924-1.7361755
		l3.7741089-10.0486145h1.5207825l-5.5216064,14.2583008c-0.2947998,0.75-0.6720886,1.4036865-1.1667786,1.8734131
		c-0.5071106,0.4815979-1.1324158,0.7689819-1.9107971,0.7689819C79.9945221,37.7975769,79.5239105,37.6785889,79.080307,37.4942932
		z"/>
	<rect x="18.0785217" y="37.4900818" class="st0" width="5.530899" height="5.5310059"/>
	<rect x="23.6094208" y="15.3659973" class="st1" width="5.5310059" height="5.5308838"/>
	<rect x="23.6094208" y="37.4900818" class="st2" width="5.5310059" height="5.5310059"/>
	<rect x="29.1404266" y="15.3659973" class="st3" width="5.530899" height="5.5308838"/>
	<rect x="29.1404266" y="37.4900818" class="st4" width="5.530899" height="5.5310059"/>
	<rect x="34.6713257" y="15.3659973" class="st5" width="5.5312958" height="5.5308838"/>
	<rect x="34.6713257" y="37.4900818" class="st6" width="5.5312958" height="5.5310059"/>
	<rect x="40.2026215" y="15.3659973" class="st7" width="5.5310059" height="5.5308838"/>
	<rect x="40.2026215" y="26.4281921" class="st7" width="5.5310059" height="5.5308838"/>
	<rect x="40.2026215" y="31.9590759" class="st7" width="5.5310059" height="5.5310059"/>
	<rect x="45.7336273" y="4.3039856" class="st1" width="5.530899" height="5.5310059"/>
	<rect x="45.7336273" y="9.8349915" class="st5" width="5.530899" height="5.5310059"/>
	<rect x="45.7336273" y="20.8968811" class="st7" width="5.530899" height="5.531311"/>
	<rect x="45.7336273" y="37.4900818" class="st6" width="5.530899" height="5.5310059"/>
	<rect x="45.7336273" y="43.0210876" class="st4" width="5.530899" height="5.5308838"/>
	<rect x="45.7336273" y="48.5519714" class="st2" width="5.530899" height="5.531311"/>
	<rect x="45.7336273" y="54.0832825" class="st0" width="5.530899" height="5.5309143"/>
	<rect x="51.2645264" y="20.8968811" class="st5" width="5.5309906" height="5.531311"/>
	<rect x="56.795517" y="20.8968811" class="st3" width="5.530899" height="5.531311"/>
	<rect x="62.326416" y="20.8968811" class="st1" width="5.531311" height="5.531311"/>
	<rect x="142.4474335" y="28.2987976" class="st7" width="3.6813965" height="3.6812744"/>
	<path d="M250.3686066,51.3440857h-0.3140869c-0.0368042,0-0.0674133-0.0107117-0.0911865-0.030304
		c-0.0239258-0.0201111-0.0426025-0.045105-0.0559082-0.0770874l-0.6596069-1.6333008h-2.7618103l-0.6598816,1.6333008
		c-0.0108032,0.02948-0.0289001,0.0543823-0.055603,0.0756836c-0.0266113,0.0209961-0.0581055,0.0317078-0.0954895,0.0317078
		h-0.3098145l2.3009033-5.623291h0.4013062L250.3686066,51.3440857z M249.124527,49.3014832l-1.1444092-2.8417053
		c-0.0395813-0.0926819-0.078186-0.2038879-0.1150818-0.3337097c-0.0161133,0.0635071-0.0334167,0.1230164-0.0518188,0.1803284
		c-0.0187073,0.0566711-0.0382996,0.1096802-0.0596008,0.1572876l-1.1445923,2.8377991H249.124527z M244.7810211,50.3981934
		c0.0263062,0,0.0490112,0.0093994,0.0674133,0.0278015l0.1589966,0.1708984
		c-0.1165161,0.1246948-0.2423096,0.2359009-0.3789063,0.3353882c-0.1364136,0.0992126-0.2861023,0.1838989-0.4490967,0.2539063
		c-0.1627197,0.0705872-0.3417969,0.1247864-0.5363159,0.1632996c-0.1947021,0.0382996-0.4093018,0.0583801-0.6425781,0.0583801
		c-0.3895264,0-0.7458191-0.0690918-1.0703125-0.2054749c-0.3246155-0.136322-0.6040955-0.329895-0.8374023-0.5802002
		c-0.2330017-0.2503052-0.4132996-0.5522156-0.541687-0.9074097c-0.128418-0.3551941-0.1936035-0.7497864-0.1936035-1.1842957
		c0-0.4266052,0.0665894-0.8161011,0.1990051-1.1685181c0.1323853-0.3522949,0.317688-0.6555786,0.5563965-0.908783
		c0.2384033-0.2531128,0.5243835-0.4490051,0.8583984-0.5881042c0.3338928-0.1391907,0.7020874-0.2077942,1.1045837-0.2077942
		c0.3843994,0,0.7246094,0.0595093,1.0216064,0.1785889c0.2965088,0.1192932,0.5667114,0.2877197,0.8103943,0.5047913
		l-0.1229858,0.1789246c-0.0212097,0.0316772-0.0544128,0.0475769-0.0995178,0.0475769
		c-0.0314026,0-0.0832825-0.0289001-0.1549988-0.0872803c-0.0715027-0.0584106-0.1706848-0.1233215-0.2978821-0.1936035
		c-0.1270142-0.0700073-0.2849121-0.1337891-0.4743042-0.1921997c-0.1893005-0.0581055-0.4172058-0.0873108-0.682312-0.0873108
		c-0.3389893,0-0.6490784,0.0584106-0.9311829,0.1748962c-0.2820129,0.1165161-0.5244141,0.2834167-0.7272949,0.5009155
		c-0.2024231,0.2171021-0.3615112,0.4820862-0.4754028,0.7944946c-0.1140137,0.3127136-0.1708984,0.6639099-0.1708984,1.0534058
		c0,0.3973999,0.058075,0.7522888,0.1734009,1.0648804c0.115387,0.3127136,0.2729797,0.5763245,0.4742737,0.7923279
		c0.2015076,0.2156982,0.4399109,0.3815918,0.7140198,0.4966736c0.2743835,0.1153259,0.5694885,0.1734009,0.8876038,0.1734009
		c0.2014771,0,0.3815002-0.0130005,0.539093-0.0395813c0.1575928-0.0263977,0.3021851-0.0661011,0.4346008-0.1191101
		c0.1322937-0.053009,0.2555847-0.1178894,0.3695984-0.1947021c0.1138916-0.0769043,0.2265015-0.1669922,0.3378906-0.2702026
		c0.0130005-0.0108032,0.0263062-0.0200806,0.0397034-0.0265808
		C244.7543182,50.4010925,244.7676239,50.3981934,244.7810211,50.3981934z M239.4912262,51.0061951l-0.0079041,0.3378906h-3.3700867
		v-5.623291h3.3700867v0.3375854h-2.9608154v2.273407h2.4639282v0.3295898h-2.4639282v2.3448181H239.4912262z
		 M234.4521332,45.7207947v5.623291h-0.4093018v-2.6943054h-3.5212097v2.6943054h-0.4093933v-5.623291h0.4093933v2.6228943
		h3.5212097v-2.6228943H234.4521332z M225.2675323,46.2332764c0.2095032-0.1853943,0.4427795-0.3270874,0.6981812-0.4237976
		c0.256012-0.0967102,0.553894-0.1442871,0.895813-0.1442871c0.2700806,0,0.5138855,0.0343018,0.7312927,0.1042786
		c0.2171021,0.0703125,0.4024963,0.1684265,0.5549927,0.2928162c0.1522217,0.1244812,0.2687073,0.2716064,0.3510132,0.4425049
		c0.0821838,0.1712036,0.1229858,0.3565979,0.1229858,0.5550842c0,0.1564026-0.0235901,0.3009949-0.0715027,0.4334106
		c-0.0475769,0.1322937-0.1124878,0.2514038-0.1960754,0.3573914c-0.0834045,0.1062927-0.1826172,0.1976013-0.2965088,0.2755127
		c-0.1140137,0.0782776-0.2373047,0.1420898-0.3696899,0.1896973c0.1723938,0.053009,0.327179,0.1243896,0.4648743,0.2145996
		c0.1378174,0.0897827,0.2557068,0.1947021,0.3527222,0.3151855c0.0965881,0.120697,0.1705933,0.2531128,0.2221985,0.3973999
		c0.0518799,0.1446228,0.0767822,0.2979126,0.0767822,0.4598083c0,0.2358093-0.0435791,0.4569092-0.1309814,0.6636047
		c-0.0874939,0.206604-0.2145081,0.3869019-0.3829041,0.5404968c-0.1680908,0.1536865-0.3748169,0.2741089-0.6184998,0.3616943
		c-0.2438049,0.0873108-0.5222168,0.131012-0.8348083,0.131012c-0.2037964,0-0.3917847-0.0173035-0.5654907-0.0516052
		c-0.1734924-0.0343018-0.3351135-0.083313-0.4836121-0.1470947c-0.1482849-0.0635071-0.2848816-0.1403198-0.4104919-0.2304993
		c-0.1259155-0.0901184-0.2438049-0.1921997-0.3522949-0.3058167l0.111084-0.1748962
		c0.0320129-0.0400085,0.0689087-0.0596008,0.1114197-0.0596008c0.0262756,0,0.0594788,0.0158997,0.0994873,0.047699
		c0.0397034,0.0317078,0.0887146,0.0700073,0.1467896,0.1165161c0.0581055,0.0462036,0.1287231,0.0965881,0.209198,0.1510925
		c0.0808105,0.0541077,0.1763,0.1045837,0.2863159,0.151001c0.1097107,0.0462952,0.2344055,0.085907,0.3746948,0.1177063
		c0.1404114,0.0316772,0.3008118,0.0475769,0.4811096,0.0475769c0.2492065,0,0.4716797-0.0328979,0.6661072-0.0991821
		c0.1947937-0.0661011,0.3591919-0.1586914,0.492981-0.2784119c0.1338196-0.118988,0.2358093-0.2608032,0.3058167-0.4237061
		c0.070282-0.1629944,0.1048889-0.3404846,0.1048889-0.533783c0-0.1723938-0.0306091-0.3338928-0.0927124-0.4836121
		c-0.0622864-0.1496887-0.1552734-0.27948-0.276886-0.3908997c-0.1218872-0.111084-0.2702026-0.1983948-0.4465027-0.2621765
		c-0.1763-0.0638123-0.377594-0.0952148-0.6026001-0.0952148h-0.7392883v-0.3418884h0.7548828
		c0.1618042,0,0.3166199-0.0238037,0.4651184-0.0714111c0.1482849-0.0479126,0.27948-0.1180115,0.3920898-0.209198
		c0.1124878-0.0916138,0.2012024-0.2030029,0.2674866-0.3340149c0.0661011-0.1311951,0.0995178-0.2808838,0.0995178-0.4503784
		c0-0.1589966-0.0320129-0.3050232-0.09552-0.4374084c-0.0634766-0.1322937-0.153595-0.247406-0.2700806-0.3440857
		c-0.1167908-0.0969238-0.2597046-0.1712036-0.4291992-0.2239075c-0.1694946-0.053009-0.3591003-0.0797119-0.5686035-0.0797119
		c-0.1613159,0-0.3045044,0.0119019-0.428894,0.0360107c-0.1246948,0.0234985-0.2344055,0.0527039-0.3314209,0.0872803
		c-0.0965881,0.0343018-0.1799927,0.0729065-0.2502747,0.1151123c-0.0703125,0.042511-0.1312256,0.0808105-0.1817017,0.115387
		c-0.0501099,0.0346069-0.0927124,0.0635071-0.1270142,0.087616c-0.0343018,0.0234985-0.0635071,0.0357056-0.0873108,0.0357056
		c-0.0424805,0-0.0767822-0.0227051-0.1033936-0.0678101L225.2675323,46.2332764z M223.9364166,45.7207947v5.623291h-0.4093018
		v-4.6178894c0-0.085022,0.0025024-0.1723022,0.0065002-0.2611084c0.0039978-0.0887146,0.0108032-0.1802063,0.0212097-0.2755127
		c-0.0368042,0.0822144-0.0742188,0.1564941-0.1113892,0.223999c-0.0368042,0.0674133-0.0739136,0.1311951-0.1111145,0.1893005
		l-3.2471008,4.6141968c-0.0209045,0.0343018-0.0476074,0.063324-0.0805054,0.0888062
		c-0.0330811,0.0249023-0.070282,0.038208-0.1098938,0.038208h-0.2983093v-5.623291h0.4094238v4.6178894
		c0,0.0846863-0.0012207,0.1708984-0.0040283,0.2582092c-0.002594,0.0872803-0.0093994,0.1774902-0.0195923,0.2702026
		c0.0343018-0.0794067,0.0700989-0.1534119,0.1069031-0.2210999c0.0374146-0.0675049,0.0746155-0.1299133,0.1113892-0.188324
		l3.2511292-4.6096802c0.0211792-0.0345154,0.0475769-0.0652161,0.0792847-0.0901184
		c0.0321045-0.025177,0.0678101-0.0370789,0.1075134-0.0370789H223.9364166z M216.484726,48.2639771
		c0.3125916,0,0.5870056,0.0332031,0.8215027,0.1008911c0.2344055,0.0675049,0.4291077,0.1656189,0.5838928,0.2940063
		c0.155304,0.1286926,0.2703857,0.2849121,0.3471985,0.4677124c0.0769043,0.1824951,0.115387,0.3894958,0.115387,0.6199036
		c0,0.2463989-0.0410767,0.4676819-0.1243896,0.664978c-0.0837097,0.1973267-0.2055054,0.3654175-0.3645935,0.5032043
		c-0.1589966,0.1380005-0.3548889,0.2441101-0.5878906,0.3180237c-0.2333069,0.0742798-0.4994202,0.1113892-0.7991028,0.1113892
		h-1.7166138v-5.623291h3.4176941v0.3216858h-3.0083923v2.2214966H216.484726z M216.4767303,51.0181885
		c0.4926758,0,0.8612061-0.1100159,1.1049805-0.3286133c0.2438049-0.2185059,0.3656006-0.5203857,0.3656006-0.9073792
		c0-0.3945007-0.1203918-0.6927185-0.3616943-0.8929138c-0.2412109-0.1997986-0.6080017-0.2992859-1.1008911-0.2992859h-1.3153076
		v2.4281921H216.4767303z M210.9410248,45.7207947v5.623291h-0.4093933v-4.6178894
		c0-0.085022,0.002594-0.1723022,0.0065918-0.2611084c0.0039063-0.0887146,0.0104065-0.1802063,0.0209045-0.2755127
		c-0.0368042,0.0822144-0.0740051,0.1564941-0.1111145,0.223999c-0.0370789,0.0674133-0.0742798,0.1311951-0.1113892,0.1893005
		l-3.2467957,4.6141968c-0.0213013,0.0343018-0.0476074,0.063324-0.0805054,0.0888062
		c-0.0334167,0.0249023-0.0705872,0.038208-0.1102905,0.038208H206.60112v-5.623291h0.4093018v4.6178894
		c0,0.0846863-0.0010986,0.1708984-0.0039063,0.2582092c-0.002594,0.0872803-0.0093994,0.1774902-0.0198975,0.2702026
		c0.0343018-0.0794067,0.0703125-0.1534119,0.1072083-0.2210999c0.0371094-0.0675049,0.0741882-0.1299133,0.111084-0.188324
		l3.2510071-4.6096802c0.0213013-0.0345154,0.047699-0.0652161,0.0797119-0.0901184
		c0.0316772-0.025177,0.0675049-0.0370789,0.1071777-0.0370789H210.9410248z M202.7820282,45.7207947v5.623291h-0.4093018
		v-4.6178894c0-0.085022,0.0025024-0.1723022,0.0065002-0.2611084c0.0039978-0.0887146,0.010498-0.1802063,0.0209961-0.2755127
		c-0.0368958,0.0822144-0.0740051,0.1564941-0.1112061,0.223999c-0.0371094,0.0674133-0.0741882,0.1311951-0.1113892,0.1893005
		l-3.2467957,4.6141968c-0.0212097,0.0343018-0.0476074,0.063324-0.080719,0.0888062
		c-0.0332031,0.0249023-0.070282,0.038208-0.1099854,0.038208h-0.2982178v-5.623291h0.4096069v4.6178894
		c0,0.0846863-0.0014038,0.1708984-0.0039978,0.2582092c-0.0025024,0.0872803-0.0093079,0.1774902-0.0198059,0.2702026
		c0.0343018-0.0794067,0.0700073-0.1534119,0.1071167-0.2210999c0.0370789-0.0675049,0.0742798-0.1299133,0.111084-0.188324
		l3.2510986-4.6096802c0.0212097-0.0345154,0.0476074-0.0652161,0.0796204-0.0901184
		c0.0317993-0.025177,0.0674744-0.0370789,0.1071777-0.0370789H202.7820282z M196.7810211,45.7207947v5.623291h-0.4093018
		v-2.6943054h-3.5214844v2.6943054h-0.4093018v-5.623291h0.4093018v2.6228943h3.5214844v-2.6228943H196.7810211z
		 M187.5965118,46.2332764c0.209198-0.1853943,0.4425049-0.3270874,0.6982117-0.4237976s0.553894-0.1442871,0.8955078-0.1442871
		c0.2700806,0,0.5141907,0.0343018,0.7312927,0.1042786c0.2171021,0.0703125,0.4024963,0.1684265,0.5549927,0.2928162
		c0.1524963,0.1244812,0.2687073,0.2716064,0.3508911,0.4425049c0.0825195,0.1712036,0.1234131,0.3565979,0.1234131,0.5550842
		c0,0.1564026-0.0238953,0.3009949-0.0718079,0.4334106c-0.0475769,0.1322937-0.1121826,0.2514038-0.1958008,0.3573914
		c-0.0836792,0.1062927-0.1825867,0.1976013-0.2967834,0.2755127c-0.1137085,0.0782776-0.2373047,0.1420898-0.3697205,0.1896973
		c0.1724243,0.053009,0.3274231,0.1243896,0.46521,0.2145996c0.1378174,0.0897827,0.2554016,0.1947021,0.3522949,0.3151855
		c0.0967102,0.120697,0.1710205,0.2531128,0.2225952,0.3973999c0.0516052,0.1446228,0.0768127,0.2979126,0.0768127,0.4598083
		c0,0.2358093-0.0437012,0.4569092-0.131012,0.6636047c-0.0875854,0.206604-0.2147827,0.3869019-0.3828735,0.5404968
		c-0.1681213,0.1536865-0.3751221,0.2741089-0.6188049,0.3616943c-0.2434998,0.0873108-0.5219116,0.131012-0.8345947,0.131012
		c-0.2041016,0-0.3920288-0.0173035-0.5655212-0.0516052s-0.3352966-0.083313-0.4835815-0.1470947
		c-0.1482239-0.0635071-0.2848206-0.1403198-0.4107056-0.2304993c-0.1259155-0.0901184-0.2434998-0.1921997-0.3522949-0.3058167
		l0.1113892-0.1748962c0.0317078-0.0400085,0.0686035-0.0596008,0.1111145-0.0596008
		c0.0265808,0,0.0594788,0.0158997,0.0994873,0.047699c0.0397034,0.0317078,0.0886841,0.0700073,0.1467896,0.1165161
		c0.0584106,0.0462036,0.1287231,0.0965881,0.209198,0.1510925c0.0811157,0.0541077,0.1766052,0.1045837,0.2863159,0.151001
		c0.1099854,0.0462952,0.2344055,0.085907,0.375,0.1177063c0.1402893,0.0316772,0.3005066,0.0475769,0.4808044,0.0475769
		c0.2490845,0,0.4716797-0.0328979,0.6663818-0.0991821c0.1947021-0.0661011,0.3589172-0.1586914,0.4927063-0.2784119
		c0.1337891-0.118988,0.2358093-0.2608032,0.3060913-0.4237061c0.0703125-0.1629944,0.1046143-0.3404846,0.1046143-0.533783
		c0-0.1723938-0.030304-0.3338928-0.0927124-0.4836121c-0.0621033-0.1496887-0.1549988-0.27948-0.276886-0.3908997
		c-0.1219177-0.111084-0.2702026-0.1983948-0.4465027-0.2621765c-0.1759949-0.0638123-0.377594-0.0952148-0.6026001-0.0952148
		h-0.7392883v-0.3418884h0.7550964c0.1615906,0,0.3166809-0.0238037,0.4651794-0.0714111
		c0.1483154-0.0479126,0.2795105-0.1180115,0.3918152-0.209198c0.112793-0.0916138,0.2015076-0.2030029,0.2674866-0.3340149
		c0.0664063-0.1311951,0.0995178-0.2808838,0.0995178-0.4503784c0-0.1589966-0.0317078-0.3050232-0.09552-0.4374084
		c-0.0632019-0.1322937-0.1532898-0.247406-0.2700806-0.3440857c-0.1165161-0.0969238-0.2593994-0.1712036-0.4291992-0.2239075
		c-0.1695251-0.053009-0.3591003-0.0797119-0.5682983-0.0797119c-0.1616211,0-0.3045044,0.0119019-0.4291992,0.0360107
		c-0.1244202,0.0234985-0.2344055,0.0527039-0.3311157,0.0872803c-0.0967102,0.0343018-0.1802979,0.0729065-0.2503052,0.1151123
		c-0.070282,0.042511-0.1311951,0.0808105-0.1817017,0.115387c-0.0502014,0.0346069-0.0926819,0.0635071-0.1269836,0.087616
		c-0.0346069,0.0234985-0.0638123,0.0357056-0.0873108,0.0357056c-0.0424805,0-0.0770874-0.0227051-0.1034851-0.0678101
		L187.5965118,46.2332764z M186.2654266,45.7207947v5.623291h-0.4093933v-4.6178894
		c0-0.085022,0.002594-0.1723022,0.0065918-0.2611084c0.0039063-0.0887146,0.0104065-0.1802063,0.0209045-0.2755127
		c-0.0368042,0.0822144-0.0739136,0.1564941-0.1111145,0.223999c-0.0370789,0.0674133-0.0741882,0.1311951-0.1113892,0.1893005
		l-3.2467957,4.6141968c-0.0212097,0.0343018-0.0476074,0.063324-0.0805054,0.0888062
		c-0.0334167,0.0249023-0.0706177,0.038208-0.1102905,0.038208h-0.2979126v-5.623291h0.4093018v4.6178894
		c0,0.0846863-0.0010986,0.1708984-0.0039063,0.2582092c-0.002594,0.0872803-0.0093994,0.1774902-0.0198975,0.2702026
		c0.0343018-0.0794067,0.0703125-0.1534119,0.1072083-0.2210999c0.0370789-0.0675049,0.0742798-0.1299133,0.111084-0.188324
		l3.2510986-4.6096802c0.0212097-0.0345154,0.0476074-0.0652161,0.0796204-0.0901184
		c0.0317993-0.025177,0.0675049-0.0370789,0.1071777-0.0370789H186.2654266z M180.951828,51.3440857h-0.2701111
		c-0.0611877,0-0.1142883-0.0147095-0.1604919-0.0422058c-0.0464172-0.0281067-0.0847168-0.0638123-0.1138916-0.1087952
		l-1.7646179-2.2532959c-0.0767822-0.1006165-0.1615906-0.1777039-0.2554016-0.2293091
		c-0.0940857-0.0516052-0.2174072-0.0769043-0.3684998-0.0769043h-0.7193909v2.7105103h-0.3891907v-2.7105103h-0.7155151
		c-0.153595,0-0.276886,0.0252991-0.3707886,0.0769043c-0.0941162,0.0516052-0.1788025,0.1286926-0.2531128,0.2293091
		l-1.7645874,2.2532959c-0.0292053,0.0449829-0.0663147,0.0806885-0.1125183,0.1087952
		c-0.0464783,0.0274963-0.1008911,0.0422058-0.1615906,0.0422058h-0.2703857l1.9156799-2.5038147
		c0.0739136-0.111084,0.1562195-0.1983948,0.2463074-0.2621765c0.0900879-0.0635071,0.1947021-0.1097107,0.3140869-0.1392212
		c-0.1113892-0.0289001-0.2054749-0.0740051-0.282074-0.1337891c-0.0771179-0.0595093-0.1525269-0.1377869-0.2267151-0.2358093
		l-1.8720093-2.3484802h0.3140259c0.0450745,0,0.0875854,0.0119019,0.1272888,0.035675
		c0.0397034,0.0238037,0.0729065,0.0570068,0.0994873,0.0995178l1.7325134,2.1655884
		c0.0478821,0.0610046,0.0969849,0.1100159,0.1459961,0.1486206c0.0487976,0.0382996,0.0992126,0.0688782,0.1507874,0.0897827
		c0.0516052,0.0216064,0.1046143,0.0357971,0.1605225,0.0440063c0.055481,0.0079041,0.1161804,0.0119019,0.1824951,0.0119019
		h0.6401062v-2.5950928h0.3891907v2.5950928h0.6399841c0.0661011,0,0.1285095-0.0039978,0.1854248-0.0119019
		c0.0569763-0.0082092,0.111084-0.0223999,0.1629944-0.0440063c0.0516052-0.0209045,0.100708-0.0514832,0.1482849-0.0897827
		c0.0479126-0.0386047,0.09552-0.087616,0.1430969-0.1486206l1.7328186-2.1655884
		c0.0263977-0.042511,0.0596008-0.0757141,0.0993042-0.0995178c0.0395813-0.0237732,0.0835876-0.035675,0.1311951-0.035675
		h0.3097839l-1.8717041,2.3484802c-0.0716858,0.0980225-0.1456909,0.1763-0.2224731,0.2358093
		c-0.0771179,0.0597839-0.1708984,0.1048889-0.2821045,0.1337891c0.1190796,0.0295105,0.2236938,0.0757141,0.3123779,0.1405945
		c0.0887146,0.0649109,0.1695251,0.1522217,0.2438049,0.2608032L180.951828,51.3440857z M170.1303253,51.3440857h-0.4093018
		v-2.5435181h-1.0018005c-0.0768127,0-0.1467896,0.0054016-0.211792,0.0173035
		c-0.0649109,0.0119019-0.1298218,0.0343018-0.1936035,0.0663147c-0.0635071,0.0317993-0.1270142,0.0754089-0.1907043,0.1323853
		c-0.0635071,0.0570068-0.1299133,0.1313171-0.1985168,0.221405l-1.5062866,1.9551086
		c-0.0292053,0.0449829-0.0662842,0.0806885-0.1113892,0.1087952c-0.045105,0.0274963-0.098114,0.0422058-0.1587219,0.0422058
		h-0.3021851l1.6531982-2.1499939c0.0846863-0.1140137,0.1708984-0.2066956,0.2585144-0.2781067
		c0.0872803-0.0717163,0.178772-0.128418,0.2740784-0.1708984c-0.2489014-0.0267029-0.4674072-0.0808105-0.6557007-0.1615906
		c-0.1882019-0.0808105-0.344696-0.1843262-0.4690857-0.3113098c-0.1244202-0.1271973-0.2182922-0.2769165-0.2820129-0.4490051
		c-0.0635071-0.1723022-0.0955811-0.3616943-0.0955811-0.5686035c0-0.2384033,0.0410767-0.4530029,0.123291-0.6423035
		c0.0821838-0.1896973,0.2026978-0.3497925,0.3616943-0.4821777c0.1590881-0.1327209,0.3548889-0.2344055,0.5881958-0.304718
		c0.2333069-0.0700989,0.4995117-0.1045837,0.7987976-0.1045837h1.7289124V51.3440857z M169.7210236,48.474884v-2.4284058
		h-1.3196106c-0.4928894,0-0.861084,0.1047974-1.1048889,0.3139954c-0.2434998,0.209198-0.3656921,0.5074158-0.3656921,0.894104
		c0,0.3948975,0.1207886,0.696991,0.3619995,0.9062195c0.2408752,0.2094727,0.6091919,0.3140869,1.1046753,0.3140869H169.7210236z
		 M164.9797211,51.3440857h-0.4093018v-5.2976074h-2.2615051c-0.0343018,0.7445984-0.08078,1.3937988-0.1391907,1.9487915
		c-0.0581055,0.5550232-0.1268921,1.0307007-0.2077026,1.4267273c-0.0808105,0.3959961-0.1720886,0.7218933-0.2741089,0.9761963
		c-0.1020813,0.254303-0.2149048,0.4543762-0.3378906,0.6015015c-0.123291,0.1468811-0.2571106,0.2489014-0.3999939,0.3061829
		c-0.143219,0.0569153-0.29422,0.085907-0.4533081,0.085907c-0.0844116,0-0.1589966-0.0079956-0.2225037-0.0238953
		c-0.0635071-0.0158081-0.0951843-0.0385132-0.0951843-0.0674133v-0.2546082h0.2384033
		c0.1218872,0,0.2394714-0.0276794,0.3536987-0.0821838c0.113678-0.0541077,0.2224731-0.1532898,0.324585-0.2979126
		c0.1018066-0.1442871,0.1958923-0.3418884,0.2835083-0.5932922c0.0872803-0.251709,0.1669006-0.5751038,0.236908-0.9682922
		c0.070282-0.3937073,0.1312714-0.8677063,0.1828918-1.422699c0.0516052-0.5552979,0.0926819-1.2084045,0.1246948-1.9606934
		h3.0559998V51.3440857z M160.0236359,51.0181885v1.6054993c0,0.0397034-0.0119019,0.0716858-0.0368042,0.0954895
		c-0.0252075,0.0238037-0.0598145,0.0357056-0.1021118,0.0357056h-0.2347107v-1.4107971h-5.0308838v1.2796021
		c0,0.0397034-0.012207,0.0716858-0.0371094,0.0954895c-0.0252991,0.0238037-0.0597839,0.0357056-0.1020813,0.0357056h-0.2344055
		v-1.7366943h0.5246887c0.0952148-0.0368958,0.1893005-0.1035156,0.2806091-0.1987915
		c0.0915833-0.0952148,0.1777039-0.2304077,0.2597046-0.405304c0.0821838-0.1748962,0.1600952-0.3946228,0.2332764-0.6596069
		c0.0725098-0.2651062,0.1377258-0.5870972,0.1958008-0.9655151c0.0584106-0.3789978,0.1086121-0.8215027,0.151123-1.3274841
		c0.0422974-0.506012,0.0756836-1.0865173,0.0991821-1.7406921h3.0563049v5.2973938H160.0236359z M158.6366119,51.0181885
		v-4.9717102h-2.2608948c-0.037384,0.7789001-0.0886841,1.4507141-0.1549988,2.014801
		c-0.0664063,0.5643921-0.1445923,1.0429077-0.2347107,1.4360962c-0.0901794,0.3937073-0.1921997,0.7115173-0.3058777,0.9537964
		c-0.1139221,0.2424011-0.2373047,0.4320068-0.3695984,0.5670166H158.6366119z M151.1974335,51.3440857h-0.4096069v-2.5435181
		h-1.0014954c-0.0768127,0-0.1468201,0.0054016-0.2117004,0.0173035c-0.0652161,0.0119019-0.1299133,0.0343018-0.1936035,0.0663147
		c-0.0635071,0.0317993-0.1270142,0.0754089-0.1907959,0.1323853c-0.0635071,0.0570068-0.1298218,0.1313171-0.1984253,0.221405
		l-1.5063782,1.9551086c-0.0292053,0.0449829-0.0663147,0.0806885-0.1114197,0.1087952
		c-0.0449829,0.0274963-0.0980835,0.0422058-0.1589966,0.0422058h-0.3018799l1.6531982-2.1499939
		c0.0846863-0.1140137,0.1708984-0.2066956,0.2581787-0.2781067c0.087616-0.0717163,0.1789246-0.128418,0.2744141-0.1708984
		c-0.2489014-0.0267029-0.4677124-0.0808105-0.6556091-0.1615906c-0.1882935-0.0808105-0.344696-0.1843262-0.4691772-0.3113098
		c-0.1244202-0.1271973-0.2182007-0.2769165-0.2820129-0.4490051c-0.0638123-0.1723022-0.0956116-0.3616943-0.0956116-0.5686035
		c0-0.2384033,0.0411072-0.4530029,0.1234131-0.6423035c0.0821838-0.1896973,0.2026062-0.3497925,0.3616943-0.4821777
		c0.1589966-0.1327209,0.3548889-0.2344055,0.5881042-0.304718c0.2333069-0.0700989,0.4995117-0.1045837,0.798584-0.1045837
		h1.729126V51.3440857z M150.7878265,48.474884v-2.4284058h-1.319519c-0.4926758,0-0.8609009,0.1047974-1.1046753,0.3139954
		c-0.2434998,0.209198-0.3657227,0.5074158-0.3657227,0.894104c0,0.3948975,0.1208191,0.696991,0.3617249,0.9062195
		c0.241272,0.2094727,0.6094971,0.3140869,1.1046753,0.3140869H150.7878265z M146.0468292,45.7207947v5.623291h-0.4093018
		v-4.6178894c0-0.085022,0.002594-0.1723022,0.0065002-0.2611084c0.0039978-0.0887146,0.010498-0.1802063,0.0209961-0.2755127
		c-0.0368042,0.0822144-0.0740051,0.1564941-0.1111145,0.223999c-0.0370789,0.0674133-0.0742798,0.1311951-0.1113892,0.1893005
		l-3.2467957,4.6141968c-0.0213013,0.0343018-0.0476074,0.063324-0.0805054,0.0888062
		c-0.0335083,0.0249023-0.0705872,0.038208-0.1102905,0.038208h-0.2979126v-5.623291h0.4093018v4.6178894
		c0,0.0846863-0.0010986,0.1708984-0.0039063,0.2582092c-0.002594,0.0872803-0.0093994,0.1774902-0.0198975,0.2702026
		c0.0343018-0.0794067,0.0703125-0.1534119,0.1072083-0.2210999c0.0371094-0.0675049,0.0741882-0.1299133,0.111084-0.188324
		l3.2510071-4.6096802c0.0213013-0.0345154,0.047699-0.0652161,0.0797119-0.0901184
		c0.0317078-0.025177,0.0675049-0.0370789,0.1070862-0.0370789H146.0468292z M140.0459137,45.7207947v5.623291h-0.4093018
		v-2.6943054h-3.5214844v2.6943054h-0.4093018v-5.623291h0.4093018v2.6228943h3.5214844v-2.6228943H140.0459137z
		 M134.4738312,51.0061951l-0.0079041,0.3378906h-3.3701172v-5.623291h3.3701172v0.3375854h-2.9608154v2.273407h2.4638977v0.3295898
		h-2.4638977v2.3448181H134.4738312z M129.4347076,45.7207947v5.623291h-6.811676v-5.623291h0.4093933v5.2973938h2.7778931
		v-5.2973938h0.4093018v5.2973938h2.8058167v-5.2973938H129.4347076z M121.3911285,51.0061951l-0.0079041,0.3378906h-3.3703918
		v-5.623291h3.3703918v0.3375854h-2.9610901v2.273407h2.4640808v0.3295898h-2.4640808v2.3448181H121.3911285z
		 M114.8734283,45.7207947c0.6596069,0,1.1576843,0.1442871,1.492981,0.433075
		c0.3351135,0.2889099,0.5020142,0.7007141,0.5020142,1.2359009c0,0.2466125-0.0465088,0.473114-0.1391907,0.6795044
		c-0.0927124,0.2069092-0.2250061,0.3843079-0.3973999,0.5339966c-0.1719971,0.1497192-0.3815002,0.2662048-0.6278992,0.349823
		c-0.2463074,0.083374-0.5232239,0.1255798-0.8305054,0.1255798h-1.0454102v2.2654114h-0.4093018v-5.623291H114.8734283z
		 M114.8734283,48.7529907c0.2463074,0,0.4674072-0.0346069,0.6636047-0.1032104
		c0.1960754-0.0691833,0.362793-0.1643982,0.4994812-0.2862854c0.136322-0.1219177,0.2412109-0.2662048,0.3137207-0.4320068
		c0.0731812-0.1654968,0.1088867-0.34552,0.1088867-0.5417175c0-0.4317017-0.1323853-0.7641907-0.3973999-0.9974976
		c-0.2651062-0.2330017-0.6611023-0.3497925-1.1882935-0.3497925h-1.0454102v2.7105103H114.8734283z M110.0287323,51.0061951
		l-0.0079041,0.3378906h-3.3701172v-5.623291h3.3701172v0.3375854h-2.9608154v2.273407h2.4638977v0.3295898h-2.4638977v2.3448181
		H110.0287323z M104.9896088,45.7207947v5.623291h-0.4093933v-4.6178894c0-0.085022,0.002594-0.1723022,0.0065918-0.2611084
		c0.0039063-0.0887146,0.0107117-0.1802063,0.0212097-0.2755127c-0.0371094,0.0822144-0.0743103,0.1564941-0.1113892,0.223999
		c-0.0368042,0.0674133-0.0740051,0.1311951-0.1114197,0.1893005l-3.2467957,4.6141968
		c-0.0209961,0.0343018-0.0475769,0.063324-0.0805054,0.0888062c-0.0331726,0.0249023-0.070282,0.038208-0.1102905,0.038208
		h-0.2978821v-5.623291h0.4093018v4.6178894c0,0.0846863-0.0011292,0.1708984-0.0039063,0.2582092
		c-0.002594,0.0872803-0.0093994,0.1774902-0.0198975,0.2702026c0.0345764-0.0794067,0.070282-0.1534119,0.1071777-0.2210999
		c0.0371094-0.0675049,0.0742188-0.1299133,0.1114197-0.188324l3.2509766-4.6096802
		c0.0210266-0.0345154,0.0477295-0.0652161,0.0794067-0.0901184c0.0317078-0.025177,0.0677185-0.0370789,0.1074219-0.0370789
		H104.9896088z M98.9886322,45.7207947v5.623291h-6.811615v-5.623291h0.4093018v5.2973938h2.7778931v-5.2973938h0.4094238v5.2973938
		h2.8056946v-5.2973938H98.9886322z M90.5119171,45.7207947v5.623291h-0.4093018v-2.6708069
		c-0.2970886,0.087616-0.5870972,0.1593018-0.8717041,0.2149048c-0.2848816,0.055603-0.5552979,0.0886841-0.8096008,0.0992126
		c-0.2541809,0.010498-0.488678-0.0065002-0.7046814-0.050415c-0.2160034-0.0437012-0.4028015-0.1217041-0.559021-0.2355957
		c-0.1563721-0.1140137-0.2782898-0.26651-0.3656006-0.4572144c-0.0872803-0.1904907-0.1309814-0.4277954-0.1309814-0.7111816
		v-1.8121948h0.4090881v1.8121948c0,0.317688,0.0714111,0.5657959,0.2145081,0.7431946
		c0.1431885,0.1773987,0.34729,0.2940063,0.6109009,0.3508911c0.2636108,0.0570068,0.5813904,0.0610046,0.9549866,0.0119019
		c0.3736267-0.0489807,0.7909241-0.1390991,1.2521057-0.2714844v-2.646698H90.5119171z M86.1443329,45.7207947l-2.3052063,4.9517822
		c-0.0606079,0.1324158-0.1255188,0.2434998-0.1958008,0.3351135c-0.0703125,0.0911865-0.1472168,0.1654968-0.2294006,0.2225037
		c-0.0822144,0.0569763-0.1708984,0.0980835-0.2676086,0.123291c-0.0965881,0.0249023-0.2023926,0.0382996-0.3165894,0.0382996
		c-0.0847168,0-0.1586914-0.0079956-0.2225037-0.0238953c-0.0635071-0.0158081-0.0953064-0.0385132-0.0953064-0.0674133v-0.2546082
		h0.2424011c0.1586914,0,0.3008118-0.0421753,0.4255066-0.1257935c0.1243896-0.0834045,0.2315979-0.2210999,0.3216858-0.4144897
		l0.3416138-0.7352905l-2.2688904-4.0494995h0.3772888c0.0372009,0,0.0675049,0.0078735,0.0913086,0.025177
		c0.0240784,0.0173035,0.0437012,0.0422058,0.0597839,0.0740051l1.7527161,3.1911926
		c0.0739746,0.1352234,0.1323853,0.2730103,0.1745911,0.4136047c0.0187073-0.0691833,0.0411072-0.1391907,0.067688-0.2095032
		c0.0263977-0.070282,0.0567017-0.1391907,0.0916138-0.2079773l1.4664001-3.1873169
		c0.0130005-0.0289001,0.0328979-0.053009,0.0581055-0.0715027c0.025177-0.0186768,0.055481-0.0276794,0.0926819-0.0276794
		H86.1443329z M80.6125336,51.3440857h-0.4096985v-5.2976074h-2.2612c-0.0343018,0.7445984-0.080719,1.3937988-0.1390991,1.9487915
		c-0.0584106,0.5550232-0.1270142,1.0307007-0.2081299,1.4267273c-0.08078,0.3959961-0.1720886,0.7218933-0.2740784,0.9761963
		c-0.1018066,0.254303-0.2145996,0.4543762-0.337616,0.6015015c-0.1235962,0.1468811-0.2573853,0.2489014-0.4002991,0.3061829
		c-0.1427917,0.0569153-0.2938843,0.085907-0.453186,0.085907c-0.0845032,0-0.1588135-0.0079956-0.2225037-0.0238953
		c-0.0632935-0.0158081-0.0953064-0.0385132-0.0953064-0.0674133v-0.2546082h0.2384033
		c0.1218872,0,0.2398071-0.0276794,0.3537903-0.0821838c0.1139221-0.0541077,0.2225037-0.1532898,0.3245239-0.2979126
		c0.1020813-0.1442871,0.1961975-0.3418884,0.2834778-0.5932922c0.0873108-0.251709,0.1670227-0.5751038,0.2373047-0.9682922
		c0.0700073-0.3937073,0.1308899-0.8677063,0.1828003-1.422699c0.0516052-0.5552979,0.0927124-1.2084045,0.1243896-1.9606934
		h3.056427V51.3440857z"/>
</g>
</svg>
