<svg xmlns="http://www.w3.org/2000/svg" width="21" height="26" viewBox="0 0 21 26"><g><g><path fill="#00b8ec" d="M21.012 10.538c0 2.41-.813 4.63-2.18 6.4a10.52 10.52 0 0 1-1.613 1.674h-.001l-.18.146c-1.018.833-2.187 1.843-3.214 2.87-2.489 2.485-3.318 4.127-3.318 4.127s-.83-1.642-3.318-4.127c-1.027-1.027-2.196-2.037-3.215-2.87l-.179-.145v-.001a10.535 10.535 0 0 1-1.614-1.673A10.438 10.438 0 0 1 0 10.538C0 4.742 4.704.042 10.506.042c5.802 0 10.506 4.7 10.506 10.496zm-7.907 0a2.598 2.598 0 0 0-2.6-2.596 2.597 2.597 0 0 0 0 5.192 2.597 2.597 0 0 0 2.6-2.596z"/></g></g></svg>