<svg xmlns="http://www.w3.org/2000/svg" width="51" height="51" viewBox="0 0 51 51"><g><g><path fill="#dadada" d="M14.918 30.678H30.79v1.764H14.918zm0-3.912H30.79v1.763H14.918zm0-3.912H30.79v1.763H14.918zm0 11.961H30.79v1.764H14.918zM51 25.5C51 39.583 39.583 51 25.5 51S0 39.583 0 25.5 11.417 0 25.5 0 51 11.417 51 25.5zm-16.72-6.122v-3.097c0-1.712-1.387-3.1-3.098-3.1H14.527a3.098 3.098 0 0 0-3.098 3.099v22.851a3.098 3.098 0 0 0 3.098 3.098h16.655a3.098 3.098 0 0 0 3.098-3.098zm3.968-3.968v-3.098a3.098 3.098 0 0 0-3.097-3.1H18.496a3.1 3.1 0 0 0-2.966 2.206h15.652a4.867 4.867 0 0 1 4.861 4.862v21.848a3.1 3.1 0 0 0 2.205-2.967zm-23.33 3.532H30.79v1.763H14.918z"/></g></g></svg>